<svg width="27" height="27" viewBox="0 0 27 27" fill="none" xmlns="http://www.w3.org/2000/svg">
<g clip-path="url(#clip0)">
<path d="M15.6819 6.16722C15.4928 6.16722 15.3258 6.03092 15.2935 5.83789C15.258 5.6228 15.403 5.4211 15.6173 5.38486L24.1382 3.96274C24.3533 3.92886 24.5558 4.07146 24.592 4.28656C24.6275 4.50086 24.4825 4.70334 24.2682 4.73959L15.7473 6.16171C15.726 6.16565 15.704 6.16722 15.6819 6.16722Z" fill="white"/>
<path d="M2.32497 8.3962C2.13588 8.3962 1.96885 8.2599 1.93655 8.06687C1.90109 7.85257 2.04606 7.65008 2.26037 7.61384L10.8475 6.18069C11.0649 6.14208 11.265 6.2902 11.3013 6.50451C11.3367 6.71881 11.1918 6.92129 10.9775 6.95754L2.39037 8.39069C2.36831 8.39463 2.34703 8.3962 2.32497 8.3962Z" fill="white"/>
<path d="M21.4082 18.4675C18.731 18.4675 16.5525 16.2882 16.5525 13.611C16.5525 13.3935 16.729 13.217 16.9464 13.217H25.8707C26.0882 13.217 26.2647 13.3935 26.2647 13.611C26.2647 16.289 24.0862 18.4675 21.4082 18.4675ZM17.3593 14.0049C17.5578 16.0644 19.2982 17.6796 21.4082 17.6796C23.5189 17.6796 25.2585 16.0644 25.4579 14.0049H17.3593Z" fill="white"/>
<path d="M16.9465 14.0048C16.8851 14.0048 16.8228 13.9899 16.7645 13.9599C16.5715 13.8591 16.4975 13.6211 16.5975 13.4281L21.0593 4.87884C21.1956 4.61884 21.6218 4.61884 21.7581 4.87884L26.2207 13.4281C26.3207 13.6211 26.2467 13.8591 26.0536 13.9599C25.8614 14.06 25.6227 13.9851 25.5218 13.7929L21.4091 5.91332L17.2964 13.7929C17.2255 13.9276 17.0884 14.0048 16.9465 14.0048Z" fill="white"/>
<path d="M5.12119 21.0163C2.44319 21.0163 0.264709 18.837 0.264709 16.1598C0.264709 15.9424 0.441194 15.7659 0.658649 15.7659H9.58295C9.80041 15.7659 9.97689 15.9424 9.97689 16.1598C9.97689 18.837 7.79841 21.0163 5.12119 21.0163ZM1.0715 16.5537C1.27004 18.6133 3.01047 20.2284 5.12119 20.2284C7.23113 20.2284 8.97156 18.6133 9.1701 16.5537H1.0715Z" fill="white"/>
<path d="M9.58263 16.5537C9.44081 16.5537 9.30372 16.4765 9.23281 16.3417L5.12009 8.46215L1.00736 16.3417C0.906509 16.5348 0.66857 16.608 0.47554 16.5088C0.282509 16.4079 0.208449 16.17 0.308509 15.9769L4.77106 7.42767C4.90736 7.16767 5.3336 7.16767 5.4699 7.42767L9.93166 15.9769C10.0317 16.17 9.95766 16.4079 9.76463 16.5088C9.70633 16.5387 9.64409 16.5537 9.58263 16.5537Z" fill="white"/>
<path d="M13.2647 8.97363C11.7221 8.97363 10.467 7.71854 10.467 6.17588C10.467 4.634 11.7221 3.37891 13.2647 3.37891C14.8074 3.37891 16.0625 4.634 16.0625 6.17588C16.0625 7.71933 14.8074 8.97363 13.2647 8.97363ZM13.2647 4.16757C12.1562 4.16757 11.2549 5.06891 11.2549 6.17666C11.2549 7.28442 12.1562 8.18654 13.2647 8.18654C14.3733 8.18654 15.2746 7.28442 15.2746 6.17666C15.2746 5.06891 14.3733 4.16757 13.2647 4.16757Z" fill="white"/>
<path d="M13.2647 23.7887C13.0472 23.7887 12.8707 23.6122 12.8707 23.3948V8.57949C12.8707 8.36203 13.0472 8.18555 13.2647 8.18555C13.4821 8.18555 13.6586 8.36203 13.6586 8.57949V23.3948C13.6586 23.6122 13.4821 23.7887 13.2647 23.7887Z" fill="white"/>
<path d="M13.2647 4.16746C13.0472 4.16746 12.8707 3.99097 12.8707 3.77352V2.81704C12.8707 2.59958 13.0472 2.4231 13.2647 2.4231C13.4821 2.4231 13.6586 2.59958 13.6586 2.81704V3.77352C13.6586 3.99097 13.4821 4.16746 13.2647 4.16746Z" fill="white"/>
<path d="M18.4615 23.7889H8.06783C7.85037 23.7889 7.67389 23.6124 7.67389 23.3949C7.67389 23.1775 7.85037 23.001 8.06783 23.001H18.4615C18.679 23.001 18.8555 23.1775 18.8555 23.3949C18.8555 23.6124 18.6798 23.7889 18.4615 23.7889Z" fill="white"/>
</g>
<defs>
<clipPath id="clip0">
<rect width="26" height="26" fill="white" transform="translate(0.264709 0.105957)"/>
</clipPath>
</defs>
</svg>
