<svg width="26" height="26" viewBox="0 0 26 26" fill="none" xmlns="http://www.w3.org/2000/svg">
<g clip-path="url(#clip0)">
<path d="M12.7162 22.8054C12.7162 21.4362 11.6063 20.3264 10.2374 20.3264C8.86831 20.3264 7.75848 21.4362 7.75848 22.8051C7.75848 24.1743 8.86831 25.2841 10.2374 25.2841C11.6056 25.2826 12.7147 24.1738 12.7162 22.8054ZM8.63771 22.8054C8.63771 21.9217 9.3538 21.2056 10.2374 21.2056C11.1208 21.2056 11.8369 21.9217 11.8369 22.8051C11.8369 23.6888 11.1208 24.4049 10.2374 24.4049C9.35429 24.4039 8.63869 23.6883 8.63771 22.8054Z" fill="white"/>
<path d="M19.4163 25.2841C20.7854 25.2843 21.8952 24.1745 21.8952 22.8054C21.8955 21.4362 20.7857 20.3264 19.4165 20.3264C18.0474 20.3264 16.9376 21.4362 16.9376 22.8054C16.9393 24.1735 18.0479 25.2824 19.4163 25.2841ZM19.4163 21.2056C20.2997 21.2056 21.016 21.9217 21.016 22.8051C21.0163 23.6885 20.2999 24.4049 19.4165 24.4049C18.5331 24.4049 17.8168 23.6888 17.8168 22.8054C17.8178 21.9225 18.5334 21.2069 19.4163 21.2056Z" fill="white"/>
<path d="M0.439611 1.57016H3.12119C4.0036 1.56673 4.75599 2.20922 4.89043 3.08157L7.01317 16.4904C7.2136 17.7906 8.33519 18.7486 9.65084 18.7435H22.772C23.0146 18.7435 23.2116 18.5465 23.2116 18.3038C23.2116 18.061 23.0146 17.8642 22.772 17.8642H9.65084C8.76843 17.8677 8.01603 17.2249 7.8816 16.3528L7.52074 14.0731H20.959C22.0968 14.0726 23.1095 13.3518 23.4824 12.2771L25.9756 5.08141C26.0224 4.94697 26.0011 4.79831 25.9187 4.68227C25.836 4.56648 25.7025 4.49755 25.5602 4.49755H6.00467L5.75886 2.94395C5.55843 1.64376 4.43683 0.685787 3.12119 0.690939H0.439611C0.196746 0.690939 0 0.88793 0 1.13055C0 1.37342 0.196746 1.57016 0.439611 1.57016ZM24.9425 5.37702L22.6517 11.9891C22.4015 12.7101 21.7222 13.1936 20.959 13.1939H7.38139L6.14376 5.37677L24.9425 5.37702Z" fill="white"/>
</g>
<defs>
<clipPath id="clip0">
<rect width="26" height="26" fill="white"/>
</clipPath>
</defs>
</svg>
