<svg width="15" height="15" viewBox="0 0 15 15" fill="none" xmlns="http://www.w3.org/2000/svg">
<path d="M14.6426 14.5205L10.4345 10.1442C11.5078 9.0678 12.1728 7.58383 12.1728 5.94721C12.1728 2.66775 9.50504 0 6.22558 0C2.94612 0 0.278366 2.66775 0.278366 5.94721C0.278366 9.22667 2.94612 11.8944 6.22558 11.8944C7.66509 11.8944 8.98622 11.3798 10.0159 10.526L14.2342 14.9131C14.2897 14.9711 14.3639 15 14.4384 15C14.5092 15 14.5797 14.9737 14.6347 14.921C14.7474 14.8125 14.7508 14.6333 14.6426 14.5205ZM6.22558 11.328C3.25849 11.328 0.844767 8.9143 0.844767 5.94721C0.844767 2.98012 3.25849 0.566401 6.22558 0.566401C9.19267 0.566401 11.6064 2.98012 11.6064 5.94721C11.6064 8.9143 9.19239 11.328 6.22558 11.328Z" fill="#3C3C3C"/>
</svg>
