<svg width="58" height="58" viewBox="0 0 58 58" fill="none" xmlns="http://www.w3.org/2000/svg">
<path d="M29 0C12.984 0 0 12.9837 0 29C0 45.0163 12.984 58 29 58C45.016 58 58 45.0163 58 29C58 12.9837 45.016 0 29 0ZM39.0231 30.5372L24.5231 39.5997C24.2297 39.7829 23.8961 39.875 23.5625 39.875C23.2603 39.875 22.9576 39.7998 22.6837 39.6475C22.1075 39.3281 21.75 38.7218 21.75 38.0625V19.9375C21.75 19.2782 22.1075 18.6719 22.6837 18.3525C23.2598 18.0312 23.9643 18.0507 24.5231 18.4003L39.0231 27.4628C39.5528 27.7947 39.875 28.3753 39.875 29C39.875 29.6247 39.5528 30.2054 39.0231 30.5372Z" fill="white"/>
</svg>
