<svg width="65" height="67" viewBox="0 0 65 67" fill="none" xmlns="http://www.w3.org/2000/svg">
<circle cx="42.5" cy="34.5" r="22.5" fill="white" fill-opacity="0.3"/>
<rect x="0.5" y="0.5" width="42" height="66" rx="1.5" stroke="black"/>
<g clip-path="url(#clip0)">
<path d="M19.3842 59.6664H11.9257C11.7529 59.6664 11.601 59.5516 11.5536 59.3853C11.5067 59.2187 11.5757 59.0413 11.723 58.9509C11.7399 58.9398 13.7925 57.5435 14.3505 51.6011C14.3704 51.389 14.5535 51.2326 14.7716 51.2525C14.9842 51.2724 15.1401 51.4609 15.1204 51.6734C14.7272 55.8578 13.6089 57.9383 12.8557 58.8934H18.4539C17.7006 57.9383 16.5825 55.8578 16.1894 51.6732C16.1697 51.4607 16.3257 51.2722 16.5382 51.2523C16.7537 51.2333 16.9395 51.3888 16.9594 51.6011C17.5238 57.6151 19.566 58.938 19.5868 58.9509C19.7339 59.0416 19.8032 59.2187 19.7558 59.3853C19.7089 59.5516 19.5572 59.6664 19.3842 59.6664Z" fill="white"/>
<path d="M15.6553 52.024C14.1532 52.024 12.7122 51.429 11.6419 50.3788C11.135 50.8101 10.49 51.051 9.81803 51.051C8.26376 51.051 6.99902 49.7867 6.99902 48.2325C6.99902 47.4254 7.33832 46.6751 7.92535 46.1456C7.33169 45.5333 6.99902 44.7216 6.99902 43.8545C6.99902 42.1598 8.28101 40.7591 9.92596 40.5706C10.0295 39.29 11.1051 38.2791 12.4123 38.2791C12.7153 38.2791 13.0128 38.3338 13.2926 38.4399C13.6684 37.2082 14.8124 36.3334 16.1419 36.3334C17.4 36.3334 18.5073 37.1192 18.9348 38.2794C20.4723 38.299 21.7169 39.5558 21.7169 41.0979C21.7169 41.1351 21.7162 41.1725 21.7147 41.2098C21.8027 41.2017 21.891 41.1977 21.979 41.1977C23.6224 41.1977 24.9599 42.535 24.9599 44.1788C24.9599 45.0392 24.5934 45.8419 23.961 46.4033C24.3941 46.9098 24.6356 47.555 24.6356 48.2325C24.6356 49.7867 23.3711 51.0512 21.8169 51.0512C21.0653 51.0512 20.3493 50.7487 19.8247 50.224C18.7415 51.3735 17.2467 52.024 15.6553 52.024ZM11.651 49.441C11.7616 49.441 11.8671 49.4883 11.9405 49.5715C12.885 50.639 14.2391 51.251 15.6551 51.251C17.1662 51.251 18.5776 50.5724 19.5269 49.3888C19.6032 49.2939 19.7191 49.2358 19.8408 49.2444C19.9618 49.2481 20.0748 49.3087 20.1447 49.4081C20.5285 49.9528 21.1535 50.278 21.8169 50.278C22.9449 50.278 23.8626 49.3603 23.8626 48.2322C23.8626 47.6242 23.5941 47.0513 23.1256 46.6609C23.0312 46.5822 22.9796 46.4628 22.9876 46.3398C22.9953 46.2168 23.061 46.1049 23.165 46.0385C23.8047 45.6293 24.1869 44.9339 24.1869 44.1786C24.1869 42.9612 23.1962 41.9707 21.9788 41.9707C21.7737 41.9707 21.5665 42.0008 21.3623 42.0601C21.2294 42.0981 21.0865 42.0627 20.9863 41.967C20.8868 41.871 20.8463 41.729 20.8799 41.5945C20.9222 41.4257 20.9436 41.2585 20.9436 41.0977C20.9436 39.9697 20.0259 39.052 18.8981 39.052C18.8284 39.052 18.7594 39.0559 18.6915 39.0624C18.5073 39.0805 18.3261 38.958 18.2788 38.7724C18.0313 37.7914 17.1525 37.1062 16.1415 37.1062C15.0218 37.1062 14.0798 37.9443 13.9502 39.0555C13.9347 39.1887 13.8513 39.3041 13.7299 39.3607C13.6085 39.4178 13.4662 39.4076 13.3543 39.334C13.0732 39.1495 12.7474 39.052 12.4119 39.052C11.4628 39.052 10.6906 39.8241 10.6906 40.7734C10.6906 40.8163 10.6939 40.8586 10.6972 40.9006C10.7052 41.0077 10.6683 41.1167 10.595 41.1957C10.5221 41.2742 10.4196 41.3224 10.3122 41.3224C10.3119 41.3224 10.3115 41.3224 10.3113 41.3224C8.90719 41.3224 7.77184 42.458 7.77184 43.8541C7.77184 44.6462 8.13481 45.3783 8.7674 45.8629C8.86826 45.9401 8.92466 46.0618 8.91847 46.1883C8.91249 46.315 8.84481 46.4305 8.73709 46.4977C8.1326 46.875 7.77184 47.5236 7.77184 48.232C7.77184 49.3601 8.68954 50.2775 9.81758 50.2775C10.4075 50.2775 10.9693 50.021 11.3592 49.5735C11.4329 49.4895 11.524 49.4344 11.651 49.441Z" fill="white"/>
<path d="M16.1413 49.1052C15.9358 49.1052 15.7648 48.9436 15.7555 48.7363C15.4485 41.9875 12.2135 41.322 12.1807 41.316C11.9708 41.278 11.8315 41.0767 11.8695 40.8668C11.9078 40.6569 12.1075 40.5186 12.319 40.5553C12.4771 40.5841 16.193 41.3436 16.5277 48.7014C16.5376 48.9146 16.3726 49.0951 16.1594 49.105C16.1532 49.105 16.1472 49.1052 16.1413 49.1052Z" fill="white"/>
<path d="M15.2404 44.524C15.0342 44.524 14.8635 44.3612 14.8546 44.1535C14.8049 42.9625 15.1249 42.0098 15.8055 41.3215C16.9415 40.1733 18.6595 40.2127 18.7311 40.2147C18.9444 40.2213 19.112 40.3998 19.1056 40.613C19.0987 40.826 18.9229 40.9968 18.7081 40.9875C18.6878 40.9873 17.2465 40.9605 16.3514 41.8691C15.8305 42.3984 15.5865 43.156 15.627 44.1215C15.6361 44.3347 15.4704 44.5147 15.2572 44.5236C15.2514 44.5238 15.2461 44.524 15.2404 44.524Z" fill="white"/>
<path d="M18.4112 49.1051C18.2216 49.1051 18.0564 48.9662 18.0288 48.7733C18.0228 48.7313 17.8894 47.7338 18.5806 47.0207C19.1064 46.4779 19.9369 46.2644 21.0486 46.3887C21.2607 46.4122 21.4138 46.6033 21.3903 46.8154C21.3669 47.0277 21.1736 47.1835 20.9635 47.1569C20.1015 47.0611 19.487 47.1965 19.136 47.5588C18.7125 47.9956 18.7932 48.6574 18.7943 48.6638C18.8244 48.8753 18.6777 49.0711 18.4663 49.1011C18.4477 49.1038 18.4293 49.1051 18.4112 49.1051Z" fill="white"/>
<path d="M12.2495 45.2136C12.0764 45.2139 11.9189 45.0964 11.8749 44.921C11.6968 44.2086 11.3714 43.7105 10.9076 43.4397C10.2268 43.0418 9.44338 43.2513 9.43564 43.2535C9.22927 43.3099 9.01716 43.1905 8.95987 42.9856C8.90236 42.7808 9.02025 42.568 9.22485 42.5097C9.26931 42.4968 10.319 42.2066 11.2878 42.7662C11.9434 43.1451 12.3933 43.8069 12.6249 44.7332C12.6767 44.9405 12.5508 45.1504 12.3438 45.2021C12.3121 45.2101 12.2807 45.2136 12.2495 45.2136Z" fill="white"/>
</g>
<rect x="6.5" y="5.5" width="30" height="26" rx="1.5" stroke="black"/>
<circle cx="34" cy="39" r="2.5" stroke="black"/>
<path d="M34 64H39.5V59" stroke="black" stroke-linecap="round" stroke-linejoin="round"/>
<path d="M29 64H31.5" stroke="black" stroke-linecap="round" stroke-linejoin="round"/>
<path d="M11 17L17.5 10.5" stroke="black" stroke-linecap="round" stroke-linejoin="round"/>
<path d="M25 27.5L31.5 21" stroke="black" stroke-linecap="round" stroke-linejoin="round"/>
<path d="M13 27L30 10" stroke="black" stroke-linecap="round" stroke-linejoin="round"/>
<defs>
<clipPath id="clip0">
<rect x="4.33301" y="36.3334" width="23.3333" height="23.3333" fill="white"/>
</clipPath>
</defs>
</svg>
