<svg width="65" height="67" viewBox="0 0 65 67" fill="none" xmlns="http://www.w3.org/2000/svg">
<circle cx="42.5" cy="34.5" r="22.5" fill="white" fill-opacity="0.3"/>
<rect x="0.5" y="0.5" width="42" height="66" rx="1.5" stroke="white"/>
<g clip-path="url(#clip0)">
<path d="M19.3842 59.6664H11.9257C11.7529 59.6664 11.601 59.5516 11.5536 59.3853C11.5067 59.2187 11.5757 59.0413 11.723 58.9509C11.7399 58.9398 13.7925 57.5435 14.3505 51.6011C14.3704 51.389 14.5535 51.2326 14.7716 51.2525C14.9842 51.2724 15.1401 51.4609 15.1204 51.6734C14.7272 55.8578 13.6089 57.9383 12.8557 58.8934H18.4539C17.7006 57.9383 16.5825 55.8578 16.1894 51.6732C16.1697 51.4607 16.3257 51.2722 16.5382 51.2523C16.7537 51.2333 16.9395 51.3888 16.9594 51.6011C17.5238 57.6151 19.566 58.938 19.5868 58.9509C19.7339 59.0416 19.8032 59.2187 19.7558 59.3853C19.7089 59.5516 19.5572 59.6664 19.3842 59.6664Z" fill="white"/>
<path d="M15.6554 52.024C14.1533 52.024 12.7123 51.429 11.642 50.3788C11.1351 50.8101 10.4901 51.051 9.81812 51.051C8.26385 51.051 6.99911 49.7867 6.99911 48.2325C6.99911 47.4254 7.33841 46.6751 7.92544 46.1456C7.33178 45.5333 6.99911 44.7216 6.99911 43.8545C6.99911 42.1598 8.2811 40.7591 9.92605 40.5706C10.0296 39.29 11.1052 38.2791 12.4124 38.2791C12.7154 38.2791 13.0129 38.3338 13.2927 38.4399C13.6685 37.2082 14.8125 36.3334 16.142 36.3334C17.4001 36.3334 18.5074 37.1192 18.9349 38.2794C20.4724 38.299 21.717 39.5558 21.717 41.0979C21.717 41.1351 21.7163 41.1725 21.7148 41.2098C21.8028 41.2017 21.8911 41.1977 21.9791 41.1977C23.6225 41.1977 24.96 42.535 24.96 44.1788C24.96 45.0392 24.5935 45.8419 23.9611 46.4033C24.3942 46.9098 24.6357 47.555 24.6357 48.2325C24.6357 49.7867 23.3712 51.0512 21.817 51.0512C21.0654 51.0512 20.3494 50.7487 19.8247 50.224C18.7416 51.3735 17.2468 52.024 15.6554 52.024ZM11.6511 49.441C11.7617 49.441 11.8672 49.4883 11.9406 49.5715C12.8851 50.639 14.2392 51.251 15.6552 51.251C17.1663 51.251 18.5777 50.5724 19.527 49.3888C19.6033 49.2939 19.7192 49.2358 19.8409 49.2444C19.9619 49.2481 20.0749 49.3087 20.1448 49.4081C20.5286 49.9528 21.1536 50.278 21.817 50.278C22.945 50.278 23.8627 49.3603 23.8627 48.2322C23.8627 47.6242 23.5942 47.0513 23.1257 46.6609C23.0313 46.5822 22.9797 46.4628 22.9877 46.3398C22.9954 46.2168 23.0611 46.1049 23.1651 46.0385C23.8047 45.6293 24.187 44.9339 24.187 44.1786C24.187 42.9612 23.1963 41.9707 21.9789 41.9707C21.7738 41.9707 21.5666 42.0008 21.3624 42.0601C21.2295 42.0981 21.0866 42.0627 20.9864 41.967C20.8869 41.871 20.8464 41.729 20.88 41.5945C20.9223 41.4257 20.9437 41.2585 20.9437 41.0977C20.9437 39.9697 20.026 39.052 18.8982 39.052C18.8285 39.052 18.7595 39.0559 18.6916 39.0624C18.5074 39.0805 18.3262 38.958 18.2789 38.7724C18.0314 37.7914 17.1526 37.1062 16.1416 37.1062C15.0219 37.1062 14.0799 37.9443 13.9503 39.0555C13.9348 39.1887 13.8514 39.3041 13.73 39.3607C13.6086 39.4178 13.4663 39.4076 13.3544 39.334C13.0733 39.1495 12.7475 39.052 12.412 39.052C11.4628 39.052 10.6907 39.8241 10.6907 40.7734C10.6907 40.8163 10.694 40.8586 10.6973 40.9006C10.7053 41.0077 10.6684 41.1167 10.5951 41.1957C10.5221 41.2742 10.4197 41.3224 10.3122 41.3224C10.312 41.3224 10.3116 41.3224 10.3114 41.3224C8.90728 41.3224 7.77194 42.458 7.77194 43.8541C7.77194 44.6462 8.1349 45.3783 8.76749 45.8629C8.86835 45.9401 8.92475 46.0618 8.91856 46.1883C8.91259 46.315 8.8449 46.4305 8.73719 46.4977C8.13269 46.875 7.77194 47.5236 7.77194 48.232C7.77194 49.3601 8.68963 50.2775 9.81767 50.2775C10.4076 50.2775 10.9694 50.021 11.3593 49.5735C11.433 49.4895 11.5241 49.4344 11.6511 49.441Z" fill="white"/>
<path d="M16.1416 49.1052C15.9362 49.1052 15.7652 48.9436 15.7559 48.7363C15.4489 41.9875 12.2138 41.322 12.1811 41.316C11.9712 41.278 11.8319 41.0767 11.8699 40.8668C11.9082 40.6569 12.1079 40.5186 12.3194 40.5553C12.4775 40.5841 16.1934 41.3436 16.5281 48.7014C16.538 48.9146 16.373 49.0951 16.1598 49.105C16.1536 49.105 16.1476 49.1052 16.1416 49.1052Z" fill="white"/>
<path d="M15.2406 44.524C15.0344 44.524 14.8637 44.3612 14.8548 44.1535C14.8051 42.9625 15.1251 42.0098 15.8057 41.3215C16.9417 40.1733 18.6597 40.2127 18.7313 40.2147C18.9445 40.2213 19.1122 40.3998 19.1058 40.613C19.0989 40.826 18.9231 40.9968 18.7083 40.9875C18.688 40.9873 17.2467 40.9605 16.3516 41.8691C15.8307 42.3984 15.5867 43.156 15.6272 44.1215C15.6363 44.3347 15.4706 44.5147 15.2574 44.5236C15.2516 44.5238 15.2463 44.524 15.2406 44.524Z" fill="white"/>
<path d="M18.4114 49.1051C18.2219 49.1051 18.0566 48.9662 18.029 48.7733C18.023 48.7313 17.8896 47.7338 18.5808 47.0207C19.1066 46.4779 19.9372 46.2644 21.0488 46.3887C21.2609 46.4122 21.414 46.6033 21.3906 46.8154C21.3671 47.0277 21.1738 47.1835 20.9637 47.1569C20.1017 47.0611 19.4873 47.1965 19.1362 47.5588C18.7127 47.9956 18.7934 48.6574 18.7945 48.6638C18.8246 48.8753 18.6779 49.0711 18.4665 49.1011C18.4479 49.1038 18.4296 49.1051 18.4114 49.1051Z" fill="white"/>
<path d="M12.2497 45.2136C12.0765 45.2139 11.9191 45.0964 11.875 44.921C11.697 44.2086 11.3716 43.7105 10.9078 43.4397C10.227 43.0418 9.44356 43.2513 9.43582 43.2535C9.22946 43.3099 9.01734 43.1905 8.96005 42.9856C8.90255 42.7808 9.02044 42.568 9.22503 42.5097C9.26949 42.4968 10.3192 42.2066 11.288 42.7662C11.9436 43.1451 12.3935 43.8069 12.6251 44.7332C12.6768 44.9405 12.551 45.1504 12.344 45.2021C12.3123 45.2101 12.2809 45.2136 12.2497 45.2136Z" fill="white"/>
</g>
<rect x="6.5" y="5.5" width="30" height="26" rx="1.5" stroke="white"/>
<circle cx="34" cy="39" r="2.5" stroke="white"/>
<path d="M34 64H39.5V59" stroke="white" stroke-linecap="round" stroke-linejoin="round"/>
<path d="M29 64H31.5" stroke="white" stroke-linecap="round" stroke-linejoin="round"/>
<path d="M11 17L17.5 10.5" stroke="white" stroke-linecap="round" stroke-linejoin="round"/>
<path d="M25 27.5L31.5 21" stroke="white" stroke-linecap="round" stroke-linejoin="round"/>
<path d="M13 27L30 10" stroke="white" stroke-linecap="round" stroke-linejoin="round"/>
<defs>
<clipPath id="clip0">
<rect width="23.3333" height="23.3333" fill="white" transform="translate(4.33334 36.3334)"/>
</clipPath>
</defs>
</svg>
