<svg width="66" height="67" viewBox="0 0 66 67" fill="none" xmlns="http://www.w3.org/2000/svg">
<g clip-path="url(#clip0)">
<circle r="22.5" transform="matrix(-1 0 0 1 43.5 34.5)" fill="white" fill-opacity="0.3"/>
</g>
<rect x="0.5" y="0.5" width="42" height="66" rx="1.5" stroke="black"/>
<circle cx="17" cy="49" r="10.5" stroke="black"/>
<rect x="6.5" y="5.5" width="30" height="26" rx="1.5" stroke="black"/>
<circle cx="34" cy="39" r="2.5" stroke="black"/>
<path d="M34 64H39.5V59" stroke="black" stroke-linecap="round" stroke-linejoin="round"/>
<path d="M29 64H31.5" stroke="black" stroke-linecap="round" stroke-linejoin="round"/>
<path d="M11 17L17.5 10.5" stroke="black" stroke-linecap="round" stroke-linejoin="round"/>
<path d="M25 27.5L31.5 21" stroke="black" stroke-linecap="round" stroke-linejoin="round"/>
<path d="M13 27L30 10" stroke="black" stroke-linecap="round" stroke-linejoin="round"/>
<circle cx="13" cy="47" r="1" fill="#CFB299"/>
<circle cx="21" cy="47" r="1" fill="#CFB299"/>
<path d="M13 52C14.3333 53.5 17.9 55.6 21.5 52" stroke="black" stroke-linecap="round" stroke-linejoin="round"/>
<defs>
<clipPath id="clip0">
<rect width="23" height="45" transform="matrix(-1 0 0 1 66 12)" fill="white"/>
</clipPath>
</defs>
</svg>
