<svg width="18" height="16" viewBox="0 0 18 16" fill="none" xmlns="http://www.w3.org/2000/svg">
<path d="M3.36361 9.28982C4.36248 10.4121 5.8302 10.8277 7.95025 9.9133C10.6818 8.72869 13.5969 6.23477 15.7373 6.54651C16.9604 6.71277 17.9185 8.25069 16.8993 9.37295C16.4712 9.83017 15.9208 9.93409 15.4519 9.74704C14.3919 9.31061 15.0442 7.81425 16.0023 8.52086C16.1043 8.60399 16.1654 8.66634 16.2266 8.66634C16.5527 8.62478 16.0227 7.52329 15.1258 7.60642C14.025 7.73112 13.1892 10.0796 15.1869 10.7238C17.3681 11.4304 19.0805 8.16756 17.2051 6.56729C14.3104 4.07337 9.31604 8.93652 6.27867 9.20669C4.99441 9.33139 4.11786 8.52086 3.89362 7.50251C3.36361 5.21641 6.17675 3.38754 7.23677 5.1125C8.0114 6.35946 5.95251 7.23234 5.87097 6.17242C5.85059 5.96459 5.95251 5.81911 5.89136 5.73598C5.70789 5.46581 4.95364 5.92303 5.09634 6.75433C5.21865 7.46095 6.01367 8.10521 6.99215 8.0013C9.09181 7.7519 10.0091 4.77998 7.78717 3.28362C4.42363 1.05988 0.632015 6.21398 3.36361 9.28982Z" fill="black"/>
<path d="M2.89465 1.18463C2.2831 0.561153 1.325 0.68585 1.28423 0.394892C1.24346 0.103934 2.22195 -0.290937 3.2412 0.623502C2.87427 -0.332502 3.75082 -0.124675 4.13814 0.831329C4.24007 0.519588 4.4643 0.540371 4.62738 0.789763C4.72931 0.935242 4.79046 1.16385 4.81085 1.39246C4.85162 2.51473 4.07699 3.65778 3.5062 4.61378C3.22081 5.071 2.97619 5.44509 2.75196 5.75683C2.77234 5.69448 2.77234 5.65291 2.79273 5.59057C3.22081 4.30204 3.83237 3.44995 3.5062 2.36925C3.22081 1.45481 1.44731 0.956025 0.794993 2.07829C0.693068 2.26533 0.652298 2.4316 0.672683 2.59786C0.774608 3.61621 2.14041 3.13821 1.85502 2.68099C1.81425 2.66021 1.75309 2.66021 1.75309 2.63942C1.73271 2.59786 1.77348 2.47316 1.91617 2.4316C2.26272 2.34847 2.58888 2.76412 2.34426 3.24212C2.07925 3.78247 0.998844 4.30204 0.264982 3.40838C-0.733885 2.11986 1.12115 0.187065 2.89465 1.18463Z" fill="black"/>
<path d="M12.1699 8.70802C12.1495 8.70802 10.4576 9.35228 9.80527 9.6848C8.74524 10.2252 7.11444 11.4929 7.07367 12.6359C7.05328 12.8438 7.11444 12.9892 7.21636 13.0308C7.39983 13.0932 7.66483 12.6775 7.76676 12.5112C7.62406 13.0308 7.56291 13.6335 7.76676 14.1323C7.8483 14.3401 7.95023 14.4648 8.05215 14.4648C8.35793 14.4233 8.33754 13.2386 8.37831 12.8646C8.43947 14.9844 10.2537 15.878 10.4372 15.4832C10.478 15.4 10.376 15.2546 10.213 15.0675C10.0499 14.8805 9.84604 14.6726 9.6218 14.4025C9.15294 13.7998 8.86755 13.1555 8.92871 12.2826C9.01025 13.7582 10.1722 14.6934 11.2526 14.7973C12.5776 14.9428 13.4542 13.7374 13.2911 12.6775C13.0669 11.098 10.8245 10.7655 10.7226 12.1164C10.6818 12.6775 11.1507 12.9269 11.3138 12.8022C11.538 12.6359 11.2934 12.4905 11.3138 12.3242C11.4361 11.3266 13.1076 12.2203 12.5776 13.4049C11.8845 14.922 9.7645 14.1946 9.37718 12.6152C8.86755 10.5992 10.4168 9.6848 12.1699 8.70802Z" fill="black"/>
</svg>
